<?xml version="1.0" standalone="no"?>
<!DOCTYPE svg PUBLIC "-//W3C//DTD SVG 20010904//EN"
 "http://www.w3.org/TR/2001/REC-SVG-20010904/DTD/svg10.dtd">
<svg version="1.0" xmlns="http://www.w3.org/2000/svg"
 width="700.000000pt" height="700.000000pt" viewBox="0 0 700.000000 700.000000"
 preserveAspectRatio="xMidYMid meet">
<metadata>
Created by potrace 1.14, written by Peter Selinger 2001-2017
</metadata>
<g transform="translate(0.000000,700.000000) scale(0.100000,-0.100000)"
fill="#000000" stroke="none">
<path d="M785 6122 c-123 -13 -289 -74 -402 -149 -139 -91 -274 -265 -329
-423 -56 -162 -54 -61 -51 -2080 l3 -1865 21 -76 c97 -343 363 -581 718 -645
22 -4 607 -7 1299 -8 1422 -2 1326 -7 1398 74 45 50 62 107 54 173 -12 86 -83
167 -161 183 -17 3 -597 6 -1290 8 l-1260 2 -57 22 c-133 54 -230 156 -269
285 l-22 72 0 1805 0 1806 21 70 c46 151 173 268 328 302 67 15 4935 12 4998
-2 155 -36 282 -160 327 -316 10 -35 13 -256 13 -981 l1 -936 31 -49 c65 -106
181 -140 286 -86 60 32 103 87 114 147 9 49 9 1820 0 1890 -10 86 -17 118 -38
180 -104 305 -350 519 -673 586 -47 10 -598 13 -2545 13 -1367 1 -2498 0
-2515 -2z"/>
<path d="M1435 4789 c-75 -40 -115 -101 -121 -182 -6 -94 12 -118 296 -402
143 -143 260 -263 260 -267 0 -5 -119 -127 -264 -273 -246 -246 -266 -268
-282 -319 -15 -48 -16 -62 -5 -112 32 -143 205 -217 324 -138 21 14 179 166
350 337 359 360 362 365 361 507 -1 138 -1 139 -368 508 -207 208 -335 330
-362 342 -55 27 -137 26 -189 -1z"/>
<path d="M2630 3279 c-87 -7 -124 -24 -167 -73 -98 -111 -62 -278 73 -342 36
-18 72 -19 529 -19 484 1 490 1 532 23 159 84 161 304 2 385 l-56 29 -419 1
c-231 1 -453 -1 -494 -4z"/>
<path d="M5438 3065 c-2 -1 -41 -5 -88 -9 -47 -3 -96 -8 -110 -11 -14 -3 -52
-10 -85 -16 -198 -36 -484 -169 -640 -299 -63 -52 -232 -227 -270 -280 -160
-220 -261 -463 -291 -700 -3 -25 -7 -58 -10 -75 -6 -45 -5 -243 1 -305 29
-274 143 -553 319 -785 55 -72 230 -239 313 -298 145 -103 330 -190 503 -236
133 -36 208 -45 375 -45 170 -1 251 7 375 39 131 33 180 50 290 101 191 90
398 251 532 414 175 212 300 500 336 775 9 67 8 325 -1 398 -18 147 -79 341
-153 488 -80 161 -159 266 -303 409 -224 220 -520 367 -836 416 -16 3 -73 7
-125 10 -52 3 -103 7 -112 8 -9 2 -18 3 -20 1z m131 -685 c47 -24 75 -55 100
-109 18 -40 19 -66 19 -280 l-1 -236 249 -5 c153 -3 259 -10 275 -17 77 -34
131 -118 131 -202 -1 -83 -38 -146 -112 -189 l-45 -27 -244 -2 c-134 -1 -246
-4 -248 -7 -3 -3 -5 -103 -5 -223 0 -127 -4 -238 -11 -266 -16 -70 -78 -131
-157 -155 -66 -19 -171 16 -219 74 -46 56 -51 92 -51 345 l0 234 -237 -2
c-198 -1 -244 1 -277 15 -82 33 -135 105 -141 192 -6 91 66 196 152 219 22 6
139 11 271 11 l232 0 0 233 c0 137 5 248 11 272 16 57 94 131 151 143 56 11
113 5 157 -18z"/>
</g>
</svg>
